<svg xmlns="http://www.w3.org/2000/svg" viewBox="0 0 512 512">
  <defs>
    <linearGradient id="brainGrad" x1="0" y1="0" x2="1" y2="1">
      <stop offset="0%" stop-color="#a855f7"/>
      <stop offset="100%" stop-color="#5b21b6"/>
    </linearGradient>
    <linearGradient id="boltGrad" x1="0" y1="0" x2="0" y2="1">
      <stop offset="0%" stop-color="#fde047"/>
      <stop offset="100%" stop-color="#facc15"/>
    </linearGradient>
  </defs>

  <!-- Brain -->
  <path fill="url(#brainGrad)" stroke="#ffffff" stroke-width="10"
    d="M160 165
       C120 165 95 195 95 235
       C95 265 110 290 135 300
       C130 345 160 375 205 370
       C225 392 260 395 285 380
       C330 400 390 385 405 345
       C445 335 455 285 425 255
       C440 210 410 170 370 170
       C345 145 305 140 275 150
       C245 125 195 130 175 155
       C170 160 165 162 160 165 Z"/>

  <!-- Lightning -->
  <path fill="#ffffff"
    d="M290 85 L220 250 L310 240 L225 390 L355 215 L275 225 Z"/>

  <!-- Lower yellow accent -->
  <path fill="url(#boltGrad)" opacity="0.95"
    d="M245 245 L325 235 L250 405 L320 345 L355 405 L330 250 Z"/>
</svg>